<?xml version="1.0" encoding="UTF-8" standalone="no"?>
<!DOCTYPE svg PUBLIC "-//W3C//DTD SVG 1.1//EN"
 "http://www.w3.org/Graphics/SVG/1.1/DTD/svg11.dtd">
<!-- Generated by graphviz version 2.43.0 (0)
 -->
<!-- Title: Tree Pages: 1 -->
<svg width="618pt" height="433pt"
 viewBox="0.00 0.00 618.00 433.00" xmlns="http://www.w3.org/2000/svg" xmlns:xlink="http://www.w3.org/1999/xlink">
<g id="graph0" class="graph" transform="scale(1 1) rotate(0) translate(4 429)">
<title>Tree</title>
<polygon fill="white" stroke="transparent" points="-4,4 -4,-429 614,-429 614,4 -4,4"/>
<!-- 0 -->
<g id="node1" class="node">
<title>0</title>
<path fill="#fdfffd" stroke="black" d="M291,-425C291,-425 172,-425 172,-425 166,-425 160,-419 160,-413 160,-413 160,-354 160,-354 160,-348 166,-342 172,-342 172,-342 291,-342 291,-342 297,-342 303,-348 303,-354 303,-354 303,-413 303,-413 303,-419 297,-425 291,-425"/>
<text text-anchor="start" x="180" y="-409.8" font-family="Helvetica,sans-Serif" font-size="14.00">petal_width ≤ 0.8</text>
<text text-anchor="start" x="196" y="-394.8" font-family="Helvetica,sans-Serif" font-size="14.00">gini = 0.667</text>
<text text-anchor="start" x="186.5" y="-379.8" font-family="Helvetica,sans-Serif" font-size="14.00">samples = 120</text>
<text text-anchor="start" x="173.5" y="-364.8" font-family="Helvetica,sans-Serif" font-size="14.00">value = [40, 41, 39]</text>
<text text-anchor="start" x="168" y="-349.8" font-family="Helvetica,sans-Serif" font-size="14.00">class = Iris&#45;versicolor</text>
</g>
<!-- 1 -->
<g id="node2" class="node">
<title>1</title>
<path fill="#e58139" stroke="black" d="M206,-298.5C206,-298.5 105,-298.5 105,-298.5 99,-298.5 93,-292.5 93,-286.5 93,-286.5 93,-242.5 93,-242.5 93,-236.5 99,-230.5 105,-230.5 105,-230.5 206,-230.5 206,-230.5 212,-230.5 218,-236.5 218,-242.5 218,-242.5 218,-286.5 218,-286.5 218,-292.5 212,-298.5 206,-298.5"/>
<text text-anchor="start" x="127.5" y="-283.3" font-family="Helvetica,sans-Serif" font-size="14.00">gini = 0.0</text>
<text text-anchor="start" x="114.5" y="-268.3" font-family="Helvetica,sans-Serif" font-size="14.00">samples = 40</text>
<text text-anchor="start" x="105" y="-253.3" font-family="Helvetica,sans-Serif" font-size="14.00">value = [40, 0, 0]</text>
<text text-anchor="start" x="101" y="-238.3" font-family="Helvetica,sans-Serif" font-size="14.00">class = Iris&#45;setosa</text>
</g>
<!-- 0&#45;&gt;1 -->
<g id="edge1" class="edge">
<title>0&#45;&gt;1</title>
<path fill="none" stroke="black" d="M205.13,-341.91C197.82,-330.65 189.87,-318.42 182.53,-307.11"/>
<polygon fill="black" stroke="black" points="185.43,-305.15 177.04,-298.67 179.56,-308.96 185.43,-305.15"/>
<text text-anchor="middle" x="171.85" y="-319.42" font-family="Helvetica,sans-Serif" font-size="14.00">True</text>
</g>
<!-- 2 -->
<g id="node3" class="node">
<title>2</title>
<path fill="#f5fef9" stroke="black" d="M367,-306C367,-306 248,-306 248,-306 242,-306 236,-300 236,-294 236,-294 236,-235 236,-235 236,-229 242,-223 248,-223 248,-223 367,-223 367,-223 373,-223 379,-229 379,-235 379,-235 379,-294 379,-294 379,-300 373,-306 367,-306"/>
<text text-anchor="start" x="250" y="-290.8" font-family="Helvetica,sans-Serif" font-size="14.00">petal_length ≤ 4.75</text>
<text text-anchor="start" x="279.5" y="-275.8" font-family="Helvetica,sans-Serif" font-size="14.00">gini = 0.5</text>
<text text-anchor="start" x="266.5" y="-260.8" font-family="Helvetica,sans-Serif" font-size="14.00">samples = 80</text>
<text text-anchor="start" x="253" y="-245.8" font-family="Helvetica,sans-Serif" font-size="14.00">value = [0, 41, 39]</text>
<text text-anchor="start" x="244" y="-230.8" font-family="Helvetica,sans-Serif" font-size="14.00">class = Iris&#45;versicolor</text>
</g>
<!-- 0&#45;&gt;2 -->
<g id="edge2" class="edge">
<title>0&#45;&gt;2</title>
<path fill="none" stroke="black" d="M257.87,-341.91C263.59,-333.1 269.69,-323.7 275.6,-314.61"/>
<polygon fill="black" stroke="black" points="278.67,-316.31 281.18,-306.02 272.8,-312.5 278.67,-316.31"/>
<text text-anchor="middle" x="286.37" y="-326.78" font-family="Helvetica,sans-Serif" font-size="14.00">False</text>
</g>
<!-- 3 -->
<g id="node4" class="node">
<title>3</title>
<path fill="#3ee684" stroke="black" d="M288,-187C288,-187 169,-187 169,-187 163,-187 157,-181 157,-175 157,-175 157,-116 157,-116 157,-110 163,-104 169,-104 169,-104 288,-104 288,-104 294,-104 300,-110 300,-116 300,-116 300,-175 300,-175 300,-181 294,-187 288,-187"/>
<text text-anchor="start" x="173.5" y="-171.8" font-family="Helvetica,sans-Serif" font-size="14.00">petal_width ≤ 1.65</text>
<text text-anchor="start" x="193" y="-156.8" font-family="Helvetica,sans-Serif" font-size="14.00">gini = 0.053</text>
<text text-anchor="start" x="187.5" y="-141.8" font-family="Helvetica,sans-Serif" font-size="14.00">samples = 37</text>
<text text-anchor="start" x="178" y="-126.8" font-family="Helvetica,sans-Serif" font-size="14.00">value = [0, 36, 1]</text>
<text text-anchor="start" x="165" y="-111.8" font-family="Helvetica,sans-Serif" font-size="14.00">class = Iris&#45;versicolor</text>
</g>
<!-- 2&#45;&gt;3 -->
<g id="edge3" class="edge">
<title>2&#45;&gt;3</title>
<path fill="none" stroke="black" d="M280.09,-222.91C274.09,-214.01 267.67,-204.51 261.47,-195.33"/>
<polygon fill="black" stroke="black" points="264.36,-193.35 255.86,-187.02 258.56,-197.27 264.36,-193.35"/>
</g>
<!-- 6 -->
<g id="node7" class="node">
<title>6</title>
<path fill="#9253e8" stroke="black" d="M441,-187C441,-187 330,-187 330,-187 324,-187 318,-181 318,-175 318,-175 318,-116 318,-116 318,-110 324,-104 330,-104 330,-104 441,-104 441,-104 447,-104 453,-110 453,-116 453,-116 453,-175 453,-175 453,-181 447,-187 441,-187"/>
<text text-anchor="start" x="330.5" y="-171.8" font-family="Helvetica,sans-Serif" font-size="14.00">petal_width ≤ 1.75</text>
<text text-anchor="start" x="350" y="-156.8" font-family="Helvetica,sans-Serif" font-size="14.00">gini = 0.206</text>
<text text-anchor="start" x="344.5" y="-141.8" font-family="Helvetica,sans-Serif" font-size="14.00">samples = 43</text>
<text text-anchor="start" x="335" y="-126.8" font-family="Helvetica,sans-Serif" font-size="14.00">value = [0, 5, 38]</text>
<text text-anchor="start" x="326" y="-111.8" font-family="Helvetica,sans-Serif" font-size="14.00">class = Iris&#45;virginica</text>
</g>
<!-- 2&#45;&gt;6 -->
<g id="edge6" class="edge">
<title>2&#45;&gt;6</title>
<path fill="none" stroke="black" d="M334.56,-222.91C340.43,-214.1 346.7,-204.7 352.76,-195.61"/>
<polygon fill="black" stroke="black" points="355.85,-197.28 358.49,-187.02 350.03,-193.4 355.85,-197.28"/>
</g>
<!-- 4 -->
<g id="node5" class="node">
<title>4</title>
<path fill="#39e581" stroke="black" d="M131,-68C131,-68 12,-68 12,-68 6,-68 0,-62 0,-56 0,-56 0,-12 0,-12 0,-6 6,0 12,0 12,0 131,0 131,0 137,0 143,-6 143,-12 143,-12 143,-56 143,-56 143,-62 137,-68 131,-68"/>
<text text-anchor="start" x="43.5" y="-52.8" font-family="Helvetica,sans-Serif" font-size="14.00">gini = 0.0</text>
<text text-anchor="start" x="30.5" y="-37.8" font-family="Helvetica,sans-Serif" font-size="14.00">samples = 36</text>
<text text-anchor="start" x="21" y="-22.8" font-family="Helvetica,sans-Serif" font-size="14.00">value = [0, 36, 0]</text>
<text text-anchor="start" x="8" y="-7.8" font-family="Helvetica,sans-Serif" font-size="14.00">class = Iris&#45;versicolor</text>
</g>
<!-- 3&#45;&gt;4 -->
<g id="edge4" class="edge">
<title>3&#45;&gt;4</title>
<path fill="none" stroke="black" d="M170.04,-103.73C156.18,-94.06 141.42,-83.77 127.66,-74.17"/>
<polygon fill="black" stroke="black" points="129.45,-71.15 119.24,-68.3 125.44,-76.89 129.45,-71.15"/>
</g>
<!-- 5 -->
<g id="node6" class="node">
<title>5</title>
<path fill="#8139e5" stroke="black" d="M284,-68C284,-68 173,-68 173,-68 167,-68 161,-62 161,-56 161,-56 161,-12 161,-12 161,-6 167,0 173,0 173,0 284,0 284,0 290,0 296,-6 296,-12 296,-12 296,-56 296,-56 296,-62 290,-68 284,-68"/>
<text text-anchor="start" x="200.5" y="-52.8" font-family="Helvetica,sans-Serif" font-size="14.00">gini = 0.0</text>
<text text-anchor="start" x="191" y="-37.8" font-family="Helvetica,sans-Serif" font-size="14.00">samples = 1</text>
<text text-anchor="start" x="181.5" y="-22.8" font-family="Helvetica,sans-Serif" font-size="14.00">value = [0, 0, 1]</text>
<text text-anchor="start" x="169" y="-7.8" font-family="Helvetica,sans-Serif" font-size="14.00">class = Iris&#45;virginica</text>
</g>
<!-- 3&#45;&gt;5 -->
<g id="edge5" class="edge">
<title>3&#45;&gt;5</title>
<path fill="none" stroke="black" d="M228.5,-103.73C228.5,-95.52 228.5,-86.86 228.5,-78.56"/>
<polygon fill="black" stroke="black" points="232,-78.3 228.5,-68.3 225,-78.3 232,-78.3"/>
</g>
<!-- 7 -->
<g id="node8" class="node">
<title>7</title>
<path fill="#ffffff" stroke="black" d="M445,-68C445,-68 326,-68 326,-68 320,-68 314,-62 314,-56 314,-56 314,-12 314,-12 314,-6 320,0 326,0 326,0 445,0 445,0 451,0 457,-6 457,-12 457,-12 457,-56 457,-56 457,-62 451,-68 445,-68"/>
<text text-anchor="start" x="357.5" y="-52.8" font-family="Helvetica,sans-Serif" font-size="14.00">gini = 0.5</text>
<text text-anchor="start" x="348" y="-37.8" font-family="Helvetica,sans-Serif" font-size="14.00">samples = 8</text>
<text text-anchor="start" x="338.5" y="-22.8" font-family="Helvetica,sans-Serif" font-size="14.00">value = [0, 4, 4]</text>
<text text-anchor="start" x="322" y="-7.8" font-family="Helvetica,sans-Serif" font-size="14.00">class = Iris&#45;versicolor</text>
</g>
<!-- 6&#45;&gt;7 -->
<g id="edge7" class="edge">
<title>6&#45;&gt;7</title>
<path fill="none" stroke="black" d="M385.5,-103.73C385.5,-95.52 385.5,-86.86 385.5,-78.56"/>
<polygon fill="black" stroke="black" points="389,-78.3 385.5,-68.3 382,-78.3 389,-78.3"/>
</g>
<!-- 8 -->
<g id="node9" class="node">
<title>8</title>
<path fill="#853fe6" stroke="black" d="M598,-68C598,-68 487,-68 487,-68 481,-68 475,-62 475,-56 475,-56 475,-12 475,-12 475,-6 481,0 487,0 487,0 598,0 598,0 604,0 610,-6 610,-12 610,-12 610,-56 610,-56 610,-62 604,-68 598,-68"/>
<text text-anchor="start" x="507" y="-52.8" font-family="Helvetica,sans-Serif" font-size="14.00">gini = 0.056</text>
<text text-anchor="start" x="501.5" y="-37.8" font-family="Helvetica,sans-Serif" font-size="14.00">samples = 35</text>
<text text-anchor="start" x="492" y="-22.8" font-family="Helvetica,sans-Serif" font-size="14.00">value = [0, 1, 34]</text>
<text text-anchor="start" x="483" y="-7.8" font-family="Helvetica,sans-Serif" font-size="14.00">class = Iris&#45;virginica</text>
</g>
<!-- 6&#45;&gt;8 -->
<g id="edge8" class="edge">
<title>6&#45;&gt;8</title>
<path fill="none" stroke="black" d="M443.96,-103.73C457.82,-94.06 472.58,-83.77 486.34,-74.17"/>
<polygon fill="black" stroke="black" points="488.56,-76.89 494.76,-68.3 484.55,-71.15 488.56,-76.89"/>
</g>
</g>
</svg>